<svg xmlns="http://www.w3.org/2000/svg" xmlns:xlink="http://www.w3.org/1999/xlink" width="493" height="478" viewBox="0 0 493 478"><defs><style>.a{clip-path:url(#b);}.b{fill:rgba(170,170,170,0.65);}.c{fill:#fff;}.c,.e{stroke-linecap:round;stroke-linejoin:round;}.d,.e{fill:none;}.d{stroke:#aaa;stroke-width:4px;}.f,.g,.h{stroke:none;}.g{fill:#707070;}.h{fill:#aaa;}</style><clipPath id="b"><rect width="493" height="478"/></clipPath></defs><g id="a" class="a"><g transform="translate(-4.811 -138.275)"><path class="b" d="M0,0H322.483L473.576,293.322H151.093Z" transform="translate(8.811 293.145)"/><g class="c" transform="translate(19.424 280.837)"><path class="f" d="M 472.7560424804688 292.8216552734375 L 151.3982543945312 292.8216552734375 L 0.8199511170387268 0.5000041127204895 L 322.177734375 0.5000041127204895 L 472.7560424804688 292.8216552734375 Z"/><path class="g" d="M 1.639984130859375 1 L 151.7031860351562 292.3216552734375 L 471.9360046386719 292.3216552734375 L 321.872802734375 1 L 1.639984130859375 1 M 0 0 L 322.4826049804688 0 L 473.5759887695312 293.3216552734375 L 151.0934143066406 293.3216552734375 L 0 0 Z"/></g><path class="d" d="M0,309.7H0Zm0-22.627H0Zm0-22.629H0Zm0-22.629H0Zm0-22.627H0Zm0-22.629H0Zm0-22.629H0Zm3.656-19.7V0H248.631V154.232Z" transform="translate(181.595 253.758)"/><g class="e" transform="matrix(-0.574, -0.819, 0.819, -0.574, 272.607, 339.918)"><path class="f" d="M0,228.939V35.587L24.616,0,49.232,35.587V228.939Z"/><path class="h" d="M 46.23242568969727 225.9392395019531 L 46.23242568969727 36.52346801757812 L 24.61559867858887 5.273508071899414 L 2.999988317489624 36.52345275878906 L 2.999988317489624 225.9392395019531 L 46.23242568969727 225.9392395019531 M 49.23242568969727 228.9392395019531 L -1.162719763669884e-05 228.9392395019531 L -1.162719763669884e-05 35.58698654174805 L 24.61552047729492 1.837158197304234e-05 L 49.23242568969727 35.58698654174805 L 49.23242568969727 228.9392395019531 Z"/></g></g></g></svg>