<svg xmlns="http://www.w3.org/2000/svg" xmlns:xlink="http://www.w3.org/1999/xlink" width="493" height="478" viewBox="0 0 493 478"><defs><style>.a{clip-path:url(#c);}.b{fill:url(#a);}.c{fill:#fff;}.d{fill:none;stroke:#aaa;stroke-width:4px;}</style><linearGradient id="a" x1="0.5" x2="0.5" y2="1" gradientUnits="objectBoundingBox"><stop offset="0" stop-color="#aaa"/><stop offset="1" stop-color="#555"/></linearGradient><clipPath id="c"><rect width="493" height="478"/></clipPath></defs><g id="b" class="a"><g transform="translate(-294.374 20.999)"><path class="b" d="M31,410A31,31,0,0,1,0,379V301.807H20.033V5a5,5,0,0,1,5-5H327a5,5,0,0,1,5,5V379a31,31,0,0,1-31,31Z" transform="translate(404.375 13)"/><path class="c" d="M31,361A31,31,0,0,1,0,330V5A5,5,0,0,1,5,0H307a5,5,0,0,1,5,5V361Z" transform="translate(346.375 62)"/><path class="d" d="M0,270H0Zm0-22.564H0Zm0-22.561H0Zm0-22.564H0Zm0-22.564H0Zm0-22.561H0Zm0-22.564H0Zm0-22.564H0ZM3.633,92.419V0h125.92V92.419ZM147.714,77.4h0Zm0-25.416h0Zm0-34.655h0Z" transform="translate(378.375 98)"/></g></g></svg>