<?xml version="1.0" standalone="no"?>
<!DOCTYPE svg PUBLIC "-//W3C//DTD SVG 20010904//EN"
 "http://www.w3.org/TR/2001/REC-SVG-20010904/DTD/svg10.dtd">
<svg version="1.0" xmlns="http://www.w3.org/2000/svg"
 width="960.000000pt" height="720.000000pt" viewBox="0 0 960.000000 720.000000"
 preserveAspectRatio="xMidYMid meet">

<g transform="translate(0.000000,720.000000) scale(0.100000,-0.100000)"
fill="#000000" stroke="none">
<path d="M0 3600 l0 -3600 4795 0 4795 0 0 3600 0 3600 -4795 0 -4795 0 0
-3600z m2690 170 l0 -1550 -215 0 -215 0 0 1550 0 1550 215 0 215 0 0 -1550z
m2840 1140 l0 -190 -210 0 -210 0 0 190 0 190 210 0 210 0 0 -190z m-930 -760
l0 -210 -544 -2 c-519 -3 -545 -4 -565 -22 -25 -23 -28 -72 -5 -104 l15 -22
372 0 c474 0 541 -9 665 -89 115 -75 195 -180 237 -312 93 -296 -22 -595 -277
-718 -145 -70 -161 -71 -833 -71 l-595 0 0 210 0 209 603 3 c584 3 603 4 637
23 47 28 70 76 70 148 0 64 -14 99 -55 137 l-27 25 -421 6 c-262 4 -438 11
-465 18 -165 43 -304 182 -347 346 -19 73 -19 203 -1 270 48 182 195 316 391
355 22 4 289 8 593 9 l552 1 0 -210z m930 -670 l0 -880 -210 0 -210 0 0 880 0
880 210 0 210 0 0 -880z m1950 670 l0 -210 -487 0 c-305 0 -502 -4 -525 -10
-56 -16 -94 -53 -107 -104 -7 -31 -11 -232 -11 -635 l0 -591 -210 0 -210 0 0
623 c0 692 1 700 65 828 52 102 136 184 245 238 139 68 151 69 728 70 l512 1
0 -210z"/>
</g>
</svg>
