<?xml version="1.0" standalone="no"?>
<!DOCTYPE svg PUBLIC "-//W3C//DTD SVG 20010904//EN"
 "http://www.w3.org/TR/2001/REC-SVG-20010904/DTD/svg10.dtd">
<svg version="1.0" xmlns="http://www.w3.org/2000/svg"
 width="1249.000000pt" height="532.000000pt" viewBox="0 0 1249.000000 532.000000"
 preserveAspectRatio="xMidYMid meet">

<g transform="translate(0.000000,532.000000) scale(0.100000,-0.100000)"
fill="#000000" stroke="none">
<path d="M0 2660 l0 -2660 3548 0 c2821 0 3542 3 3523 13 -16 8 -26 23 -28 42
-2 17 -8 31 -14 33 -14 6 -11 32 6 38 8 4 15 10 15 15 0 5 -7 9 -15 9 -9 0
-15 9 -15 25 0 14 -4 25 -10 25 -14 0 -12 27 3 34 10 5 10 7 0 12 -9 4 -13 30
-13 79 0 41 -4 77 -10 80 -5 3 -10 17 -10 30 0 18 7 26 24 31 22 5 25 13 31
77 7 77 21 127 37 127 5 0 6 5 2 12 -4 6 -1 16 7 22 8 6 19 27 25 46 6 23 19
40 37 48 20 10 28 23 33 53 4 23 12 39 20 39 8 0 14 8 14 18 1 21 23 52 39 52
6 0 11 5 11 10 0 6 8 10 17 10 12 0 14 3 6 11 -13 13 18 49 42 49 8 0 15 9 15
20 0 11 7 20 15 20 9 0 35 18 57 40 23 22 50 40 61 40 10 0 34 16 53 35 18 19
43 35 54 35 14 0 20 7 20 23 0 17 9 27 35 37 19 7 47 26 61 41 14 15 33 25 40
22 8 -3 14 1 14 10 0 10 14 18 40 22 32 5 38 10 30 20 -8 10 -1 14 35 19 28 5
45 12 45 21 0 9 17 16 45 20 24 4 50 13 56 21 6 8 17 14 23 14 6 0 23 6 38 14
15 8 52 20 83 27 30 7 55 16 55 21 0 4 9 8 21 8 11 0 27 6 35 14 8 8 36 17 62
21 26 3 70 12 98 20 28 8 58 15 67 15 10 0 17 5 17 11 0 6 6 9 13 6 6 -2 35 2
62 10 28 8 124 18 214 24 101 6 170 14 179 22 11 8 87 13 263 16 206 3 253 1
272 -11 15 -11 69 -17 177 -22 85 -4 180 -12 210 -17 30 -5 80 -12 110 -15 52
-5 109 -21 120 -33 8 -9 211 -63 257 -68 23 -3 47 -11 54 -19 6 -8 24 -14 39
-14 15 0 33 -7 40 -15 7 -8 17 -15 22 -15 6 0 24 -6 41 -13 58 -25 98 -36 112
-31 7 3 17 -6 23 -24 8 -24 16 -29 43 -30 19 0 35 -6 37 -11 2 -6 10 -11 17
-11 7 0 15 -9 18 -20 3 -12 11 -18 19 -15 8 3 21 -1 28 -10 7 -8 19 -15 27
-15 38 0 163 -93 163 -121 0 -5 12 -9 28 -9 20 -1 35 -12 60 -45 18 -25 38
-45 45 -45 7 0 23 -14 36 -30 13 -17 29 -30 36 -30 7 0 15 -9 18 -20 3 -12 14
-20 27 -20 13 0 20 -5 17 -12 -3 -12 39 -58 54 -58 3 0 11 -16 19 -35 8 -19
18 -35 22 -35 5 0 13 -11 18 -25 5 -14 14 -25 19 -25 6 0 13 -17 17 -38 4 -20
20 -53 35 -73 16 -20 29 -44 29 -53 0 -9 5 -16 10 -16 6 0 10 -9 10 -19 0 -11
5 -21 12 -23 16 -6 29 -223 21 -370 -5 -105 -8 -118 -24 -118 -12 0 -16 -5
-13 -15 4 -8 2 -15 -4 -15 -5 0 -12 -16 -14 -35 l-4 -35 478 0 478 0 0 2660 0
2660 -1099 0 -1099 0 -6 -72 c-14 -152 -18 -640 -5 -671 8 -20 9 -31 2 -35 -6
-4 -13 -26 -17 -49 -3 -24 -9 -62 -12 -85 -3 -24 -10 -47 -15 -53 -12 -12 -12
-87 0 -118 7 -19 30 -33 90 -58 44 -18 100 -50 125 -71 43 -37 46 -42 46 -90
0 -47 -4 -54 -40 -89 -23 -22 -60 -48 -83 -60 -61 -30 -200 -75 -287 -93 -41
-8 -106 -22 -145 -30 -89 -19 -434 -46 -585 -46 -110 0 -418 22 -565 39 -147
18 -372 68 -424 96 -17 8 -36 15 -44 15 -26 0 -137 81 -152 111 -8 15 -15 44
-15 64 0 48 36 80 159 140 179 87 173 84 134 89 -15 2 -19 15 -23 92 -3 49 -9
94 -13 101 -4 6 -11 52 -16 103 -6 50 -15 98 -22 106 -9 11 -10 52 -4 157 9
169 14 465 8 490 -4 16 -212 17 -4194 17 l-4189 0 0 -2660z m9710 794 c145
-14 458 -72 595 -110 33 -9 74 -18 92 -21 18 -3 38 -11 44 -19 6 -8 19 -14 28
-14 9 0 60 -24 114 -53 54 -28 119 -63 146 -77 26 -14 60 -38 74 -55 66 -74
89 -106 98 -137 13 -42 1 -184 -18 -223 -15 -30 -69 -85 -84 -85 -4 0 -11 -9
-14 -20 -3 -11 -11 -20 -16 -20 -7 0 -69 -42 -114 -79 -6 -4 -24 -11 -40 -15
-17 -4 -38 -16 -48 -27 -10 -10 -25 -19 -34 -19 -9 0 -24 -6 -32 -14 -9 -7
-56 -21 -106 -31 -49 -9 -94 -21 -100 -25 -5 -4 -59 -17 -120 -29 -101 -20
-164 -31 -380 -61 -44 -6 -94 -16 -112 -21 -31 -10 -609 -13 -690 -4 -24 3
-60 7 -80 9 -21 3 -78 11 -128 20 -49 8 -148 24 -220 35 -71 11 -168 32 -215
46 -47 15 -100 30 -117 35 -18 4 -55 20 -83 34 -27 14 -58 26 -68 26 -11 0
-30 8 -43 19 -13 10 -41 23 -61 30 -20 7 -43 23 -52 36 -8 13 -31 28 -51 35
-19 6 -35 17 -35 24 0 7 -13 26 -30 42 -16 16 -30 37 -30 47 0 10 -7 20 -15
24 -55 21 -65 167 -16 220 10 10 21 32 25 47 8 32 86 107 150 145 23 14 45 30
49 38 4 7 14 13 21 13 7 0 51 18 97 39 46 22 98 43 114 47 17 4 35 10 40 15
21 16 318 82 475 105 298 44 714 56 990 28z m-9103 -175 c28 -10 83 -57 83
-69 0 -4 -11 -12 -25 -18 -21 -10 -30 -8 -61 13 -46 31 -81 32 -125 2 -63 -43
-63 -131 0 -174 44 -30 82 -29 120 3 46 39 41 54 -19 54 -49 0 -50 1 -50 30
l0 30 90 0 c101 0 100 1 79 -75 -29 -103 -133 -153 -232 -111 -72 30 -120 124
-99 195 32 105 138 159 239 120z m493 -159 l0 -170 -30 0 -30 0 0 170 0 170
30 0 30 0 0 -170z m1072 44 c3 -111 5 -127 22 -140 27 -19 52 -18 76 6 18 18
20 33 20 140 l0 120 30 0 30 0 0 -136 0 -136 -34 -34 c-30 -30 -40 -34 -86
-34 -46 0 -56 4 -86 34 l-34 34 0 136 0 136 29 0 29 0 4 -126z m1458 34 l1
-93 53 58 c48 54 56 58 90 55 l37 -3 -50 -56 -50 -56 54 -76 55 -77 -39 0
c-35 0 -41 4 -75 56 -36 54 -38 55 -57 38 -12 -11 -19 -30 -19 -56 0 -37 -1
-38 -35 -38 l-35 0 0 170 0 170 35 0 35 0 0 -92z m740 -78 l0 -170 -29 0 c-16
0 -31 5 -33 10 -2 7 -17 5 -43 -6 -79 -33 -164 23 -173 114 -6 69 19 119 72
143 50 23 72 23 110 4 15 -8 30 -15 32 -15 2 0 4 20 4 45 0 43 1 45 30 45 l30
0 0 -170z m-3465 96 c19 -8 35 -11 35 -5 0 5 16 9 35 9 l35 0 0 -135 0 -135
-35 0 c-19 0 -35 4 -35 9 0 6 -16 3 -37 -5 -22 -10 -49 -13 -69 -9 -130 24
-151 218 -30 271 40 17 59 17 101 0z m400 0 c19 -8 35 -11 35 -5 0 5 16 9 35
9 l35 0 0 -135 0 -135 -35 0 c-19 0 -35 4 -35 9 0 5 -18 2 -40 -6 -36 -15 -43
-14 -86 2 -58 22 -84 62 -84 128 0 65 22 105 73 128 51 23 58 23 102 5z m1271
-1 c48 -20 64 -62 64 -175 l0 -90 -35 0 -35 0 0 86 c0 104 -9 124 -55 124 -51
0 -65 -27 -65 -127 l0 -83 -35 0 -35 0 0 135 0 135 35 0 c26 0 35 -4 35 -17 0
-14 2 -15 18 -1 34 30 59 34 108 13z m287 1 c18 -7 43 -26 57 -41 21 -23 25
-36 25 -92 0 -62 -2 -66 -37 -98 -45 -42 -95 -53 -139 -31 -18 9 -34 16 -36
16 -1 0 -3 -34 -3 -75 l0 -75 -30 0 -30 0 0 200 0 200 30 0 c20 0 30 -5 30
-15 0 -12 6 -11 33 5 38 24 57 25 100 6z m282 0 c19 -8 35 -11 35 -5 0 5 16 9
35 9 l35 0 0 -135 0 -135 -35 0 c-19 0 -35 4 -35 9 0 6 -16 3 -37 -5 -22 -10
-49 -13 -69 -9 -130 24 -151 218 -30 271 40 17 59 17 101 0z m312 3 c33 -12
83 -57 83 -75 0 -6 -12 -15 -26 -18 -19 -5 -33 -1 -48 13 -50 47 -126 13 -126
-54 0 -68 77 -101 127 -53 19 18 27 20 48 10 32 -15 31 -23 -1 -56 -42 -41
-94 -53 -149 -32 -52 20 -82 54 -91 103 -20 107 84 200 183 162z m561 -15 c31
-21 62 -73 62 -106 l0 -28 -110 0 c-60 0 -110 -3 -110 -7 0 -4 10 -17 22 -30
28 -30 83 -31 114 -2 20 19 25 19 49 7 l26 -14 -22 -28 c-24 -30 -74 -56 -111
-56 -36 0 -102 38 -121 69 -10 17 -17 50 -17 79 0 57 31 104 85 128 35 16 99
10 133 -12z m-2484 -25 l28 -40 30 41 30 41 75 -3 75 -3 30 -75 c16 -41 33
-79 37 -83 4 -4 22 30 40 78 32 84 33 85 67 85 19 0 34 -1 34 -3 0 -1 -35 -90
-78 -197 -77 -193 -78 -195 -110 -198 -18 -2 -32 1 -32 6 0 5 11 36 25 70 l25
61 -53 125 c-28 69 -55 126 -59 126 -4 0 -27 -28 -51 -62 l-45 -62 42 -56 c63
-82 63 -80 18 -80 -35 0 -43 5 -67 40 -15 22 -30 40 -34 40 -3 0 -19 -18 -34
-40 -25 -35 -33 -40 -69 -40 l-40 0 26 35 c14 19 37 50 51 68 l25 33 -45 62
c-25 34 -45 64 -45 67 0 3 17 5 38 5 32 0 41 -6 66 -41z m-1116 -636 c-36 -5
-40 -42 -5 -44 l22 -2 -22 -4 c-18 -3 -23 -11 -23 -34 0 -16 -4 -29 -10 -29
-6 0 -10 27 -10 60 l0 60 38 -1 c30 -2 32 -3 10 -6z m142 -8 c0 -8 8 -15 18
-15 24 0 42 -19 42 -45 0 -29 -19 -45 -52 -45 -28 0 -28 1 -28 60 0 33 4 60
10 60 6 0 10 -7 10 -15z m538 -47 l-2 -63 -3 53 c-4 46 -7 52 -26 53 -21 0
-21 1 -2 9 34 14 35 12 33 -52z m171 48 c14 -16 4 -43 -23 -66 -23 -18 -20
-28 12 -33 18 -3 13 -4 -17 -6 -43 -1 -43 -1 -27 22 9 12 23 32 32 44 20 28 9
46 -23 38 -16 -4 -22 -2 -18 5 9 15 51 12 64 -4z m105 -18 c16 -44 -3 -83 -39
-83 -24 0 -31 5 -38 30 -5 19 -4 41 2 58 15 39 61 35 75 -5z m86 17 c11 -13 8
-22 -14 -53 l-26 -37 27 -6 c23 -6 20 -7 -16 -8 -47 -1 -47 -1 2 56 26 30 16
57 -19 49 -17 -5 -23 -3 -19 4 9 15 51 12 65 -5z m86 -10 c-15 -23 -15 -26 -1
-31 18 -7 20 -35 3 -52 -7 -7 -25 -12 -42 -12 -16 0 -26 3 -22 7 4 4 17 8 29
8 29 0 35 33 7 43 l-21 8 22 19 21 20 -33 6 c-33 6 -32 6 10 8 l43 1 -16 -25z
m184 10 c0 -8 8 -16 18 -16 16 -1 16 -2 0 -6 -12 -3 -18 -14 -18 -33 0 -17 7
-33 18 -39 15 -9 15 -10 -5 -11 -26 0 -38 38 -34 103 1 21 21 23 21 2z m110
-45 c0 -33 -4 -60 -10 -60 -5 0 -10 23 -10 50 0 41 -3 50 -17 50 -15 0 -16 2
-3 10 32 21 40 11 40 -50z m111 33 c15 -41 0 -87 -31 -91 -42 -6 -65 51 -40
99 16 30 58 25 71 -8z m150 0 c15 -41 0 -87 -31 -91 -42 -6 -65 51 -40 99 16
30 58 25 71 -8z m98 13 c17 -21 10 -87 -11 -100 -28 -17 -52 5 -56 48 -4 41
11 66 38 66 10 0 23 -6 29 -14z m143 -46 c18 -53 16 -82 -3 -47 -6 9 -19 17
-29 17 -10 0 -23 -8 -29 -17 -5 -10 -12 -15 -16 -12 -9 10 36 120 48 116 6 -2
19 -27 29 -57z m74 25 c8 -19 16 -35 19 -35 3 0 11 16 19 35 22 53 36 43 36
-25 0 -33 -4 -60 -10 -60 -5 0 -10 17 -10 38 l-1 37 -15 -27 c-8 -16 -17 -28
-19 -28 -2 0 -11 12 -19 28 l-15 27 -1 -37 c0 -21 -4 -38 -10 -38 -6 0 -10 27
-10 60 0 68 14 78 36 25z m219 -5 c0 -31 -3 -35 -27 -38 -20 -2 -28 -9 -28
-23 0 -10 -4 -19 -10 -19 -6 0 -10 27 -10 61 l0 60 38 -3 c35 -3 37 -5 37 -38z
m83 33 c-14 -4 -18 -15 -18 -59 0 -30 -4 -54 -10 -54 -5 0 -10 24 -10 54 0 44
-4 55 -17 59 -10 3 2 5 27 5 25 0 37 -2 28 -5z m-718 -23 c0 -5 -4 -10 -10
-10 -5 0 -10 5 -10 10 0 6 5 10 10 10 6 0 10 -4 10 -10z m-1482 -27 c3 -20 -1
-23 -27 -23 -24 0 -29 -4 -24 -16 4 -10 14 -14 29 -11 13 2 24 0 24 -4 0 -5
-9 -9 -19 -9 -38 0 -51 11 -51 44 0 40 7 48 40 44 17 -2 26 -10 28 -25z m160
20 c-13 -3 -18 -15 -18 -44 0 -21 -4 -39 -10 -39 -5 0 -10 20 -10 45 0 43 1
45 28 44 16 -1 20 -3 10 -6z m62 -68 c10 0 16 12 18 38 5 53 22 46 22 -9 0
-45 0 -45 -32 -42 -32 3 -33 5 -34 48 l-2 45 7 -40 c4 -26 11 -40 21 -40z
m118 28 c3 -42 2 -43 -26 -43 -33 0 -49 24 -31 46 6 8 21 14 32 14 24 0 12 15
-18 23 -12 3 -8 5 10 4 28 -2 30 -5 33 -44z m70 40 c-13 -3 -18 -15 -18 -44 0
-21 -4 -39 -10 -39 -5 0 -10 20 -10 45 0 43 1 45 28 44 16 -1 20 -3 10 -6z
m48 -25 l7 -33 14 33 c7 17 17 32 22 32 12 0 -27 -103 -42 -112 -22 -14 -31
-8 -15 8 14 15 15 21 2 57 -17 47 -17 47 -5 47 5 0 13 -15 17 -32z m702 20 c7
-7 12 -27 12 -45 0 -30 -3 -33 -29 -33 -39 0 -57 22 -36 44 9 9 24 16 33 16
20 0 4 16 -23 23 -16 4 -15 5 6 6 14 0 30 -4 37 -11z m322 -38 c0 -5 -4 -10
-10 -10 -5 0 -10 5 -10 10 0 6 5 10 10 10 6 0 10 -4 10 -10z m-852 -37 c-2 -9
-8 -18 -15 -20 -7 -3 -9 3 -6 16 6 25 26 28 21 4z m-457 -276 c14 -4 19 -13
17 -39 l-1 -33 -4 33 c-3 18 -10 32 -18 32 -8 0 -15 -14 -18 -32 -2 -19 -4 -9
-4 22 0 30 1 48 4 39 2 -10 13 -19 24 -22z m149 3 c10 0 21 -7 24 -16 9 -24 7
-54 -4 -54 -5 0 -10 14 -10 31 0 39 -22 34 -31 -7 -5 -21 -7 -13 -7 26 0 30 2
47 5 38 2 -10 13 -18 23 -18z m162 -32 c2 -21 0 -38 -4 -38 -4 0 -7 24 -7 53
1 54 5 49 11 -15z m668 32 c10 0 21 -7 24 -16 9 -24 7 -54 -4 -54 -5 0 -10 14
-10 31 0 39 -22 34 -31 -7 -5 -21 -7 -13 -7 26 0 30 2 47 5 38 2 -10 13 -18
23 -18z m681 -3 c14 -4 19 -13 17 -39 l-1 -33 -4 33 c-3 18 -10 32 -18 32 -8
0 -15 -14 -18 -32 -2 -19 -4 -9 -4 22 0 30 1 48 4 39 2 -10 13 -19 24 -22z
m479 -18 c0 -49 -1 -50 -27 -47 -22 2 -29 9 -31 31 -3 22 1 30 17 34 12 3 21
12 21 19 0 8 5 14 10 14 6 0 10 -23 10 -51z m240 0 c0 -47 -2 -50 -22 -47 -32
4 -39 57 -9 65 12 3 21 12 21 19 0 8 2 14 5 14 3 0 5 -23 5 -51z m972 -11 c2
-21 0 -38 -4 -38 -4 0 -7 24 -7 53 1 54 5 49 11 -15z m308 11 c0 -49 -1 -50
-27 -47 -22 2 -29 9 -31 31 -3 22 1 30 17 34 12 3 21 12 21 19 0 8 5 14 10 14
6 0 10 -23 10 -51z m-3970 10 c0 -10 5 -19 10 -19 6 0 10 11 10 25 0 36 18 31
28 -7 l9 -33 7 33 c4 17 11 32 16 32 11 0 -12 -77 -25 -81 -5 -2 -13 10 -16
26 l-6 30 -8 -32 c-9 -40 -21 -42 -29 -5 -4 15 -9 35 -13 46 -3 12 -1 16 6 12
6 -4 11 -16 11 -27z m189 3 c-14 -5 -11 -50 4 -55 7 -4 6 -6 -4 -6 -12 -1 -18
9 -21 33 -5 46 0 59 17 43 7 -7 9 -13 4 -15z m220 0 c-14 -5 -11 -50 4 -55 7
-4 6 -6 -4 -6 -12 -1 -18 9 -21 33 -5 46 0 59 17 43 7 -7 9 -13 4 -15z m490 0
c-15 -6 -10 -40 9 -52 16 -10 15 -10 -3 -8 -13 2 -22 13 -26 33 -7 41 -1 58
16 42 7 -7 9 -13 4 -15z m746 -17 c0 -36 -3 -40 -27 -43 -27 -3 -28 -2 -28 43
0 45 1 46 28 43 24 -3 27 -7 27 -43z m184 17 c-15 -6 -10 -40 9 -52 16 -10 15
-10 -3 -8 -13 2 -22 13 -26 33 -7 41 -1 58 16 42 7 -7 9 -13 4 -15z m80 0
c-15 -6 -10 -40 9 -52 16 -10 15 -10 -3 -8 -13 2 -22 13 -26 33 -7 41 -1 58
16 42 7 -7 9 -13 4 -15z m1629 21 c-43 -7 -50 -73 -7 -73 21 0 26 25 7 33 -8
3 -6 6 5 6 12 1 17 -7 17 -24 0 -19 -5 -25 -23 -25 -29 0 -47 18 -47 45 0 29
19 45 50 44 l25 -2 -27 -4z m-3390 -51 c3 -31 2 -33 -24 -30 -34 4 -43 24 -15
33 26 8 27 22 4 29 -11 3 -7 4 7 3 21 -2 26 -8 28 -35z m95 28 c-13 -5 -23
-16 -23 -25 0 -9 10 -20 23 -25 22 -9 22 -9 1 -9 -12 -1 -25 6 -28 15 -10 27
3 54 27 53 l22 0 -22 -9z m315 -13 c2 -12 -3 -17 -17 -17 -28 0 -27 -20 2 -21
19 -1 20 -2 3 -6 -27 -7 -49 23 -35 49 12 23 42 20 47 -5z m99 -29 c-2 -13 -4
-5 -4 17 -1 22 1 32 4 23 2 -10 2 -28 0 -40z m58 25 c4 15 11 27 15 27 5 0 3
-16 -3 -35 -13 -43 -22 -44 -36 -4 -15 43 -12 51 4 14 l13 -30 7 28z m83 4 c2
-12 -3 -17 -17 -17 -28 0 -27 -20 2 -21 19 -1 20 -2 3 -6 -27 -7 -49 23 -35
49 12 23 42 20 47 -5z m50 16 c-22 -5 -24 -23 -3 -23 8 0 15 -9 15 -20 0 -15
-6 -20 -27 -19 -24 2 -25 2 -5 6 24 5 31 23 8 23 -8 0 -18 5 -21 10 -10 16 4
30 28 29 17 -1 18 -2 5 -6z m110 0 c-10 -2 -18 -17 -21 -36 -4 -31 -4 -31 -5
6 -2 33 1 37 21 36 15 -1 17 -3 5 -6z m70 -16 c2 -12 -3 -17 -17 -17 -28 0
-27 -20 2 -21 19 -1 20 -2 3 -6 -27 -7 -49 23 -35 49 12 23 42 20 47 -5z m70
-15 c3 -31 2 -33 -24 -30 -34 4 -43 24 -15 33 26 8 27 22 4 29 -11 3 -7 4 7 3
21 -2 26 -8 28 -35z m109 -2 c1 -33 1 -33 -5 -6 -10 43 -32 45 -33 4 l-1 -33
-7 29 c-9 42 -29 44 -34 4 l-4 -33 -1 37 -2 38 43 -3 c41 -2 42 -3 44 -37z
m181 18 c3 -14 -3 -18 -24 -18 -30 0 -23 -15 11 -23 16 -4 14 -5 -6 -6 -30 -1
-43 20 -33 51 7 24 47 21 52 -4z m50 15 c-10 -2 -18 -17 -21 -36 -4 -31 -4
-31 -5 6 -2 33 1 37 21 36 15 -1 17 -3 5 -6z m70 -15 c3 -14 -3 -18 -24 -18
-30 0 -23 -15 11 -23 16 -4 14 -5 -6 -6 -30 -1 -43 20 -33 51 7 24 47 21 52
-4z m210 -1 c2 -12 -3 -17 -17 -17 -28 0 -27 -20 2 -21 19 -1 20 -2 3 -6 -27
-7 -49 23 -35 49 12 23 42 20 47 -5z m70 -15 c3 -31 2 -33 -24 -30 -34 4 -43
24 -15 33 26 8 27 22 4 29 -11 3 -7 4 7 3 21 -2 26 -8 28 -35z m272 34 c0 -2
3 -11 6 -19 4 -11 -2 -17 -23 -19 l-28 -4 25 -12 25 -12 -25 3 c-40 4 -41 67
0 67 11 0 20 -2 20 -4z m83 -3 c-16 -3 -23 -11 -23 -28 0 -16 7 -25 23 -28 19
-5 19 -5 -3 -4 -15 1 -26 9 -28 20 -6 30 6 47 30 46 l23 -2 -22 -4z m60 0 c-7
-2 -13 -18 -13 -34 0 -16 -4 -29 -10 -29 -5 0 -10 16 -10 35 0 30 3 35 23 34
12 0 16 -3 10 -6z m72 -28 c0 -25 -4 -30 -25 -30 -16 0 -26 6 -28 18 -6 30 6
49 30 45 18 -2 23 -9 23 -33z m49 16 l6 24 14 -24 13 -23 6 23 c3 13 9 20 12
17 3 -3 -1 -21 -9 -39 -14 -33 -15 -33 -22 -10 l-7 23 -13 -23 -12 -24 -11 28
c-15 39 -13 57 3 28 l13 -23 7 23z m224 -19 c3 -31 2 -33 -24 -30 -34 4 -43
24 -15 33 26 8 27 22 4 29 -11 3 -7 4 7 3 21 -2 26 -8 28 -35z m68 -2 l2 -35
-5 33 c-2 18 -10 32 -18 32 -8 0 -15 -14 -18 -32 -4 -32 -4 -32 -5 5 -2 34 0
38 21 35 18 -2 22 -10 23 -38z m162 33 c-10 -2 -18 -17 -21 -36 -4 -31 -4 -31
-5 6 -2 33 1 37 21 36 15 -1 17 -3 5 -6z m70 -15 c3 -14 -3 -18 -24 -18 -30 0
-23 -15 11 -23 16 -4 14 -5 -6 -6 -30 -1 -43 20 -33 51 7 24 47 21 52 -4z m43
15 l-25 -5 25 -18 c18 -14 21 -22 13 -30 -7 -7 -20 -10 -30 -7 -16 4 -15 5 4
6 24 1 31 21 8 21 -8 0 -18 5 -21 10 -10 16 4 30 28 29 20 -2 20 -2 -2 -6z
m87 -15 c3 -14 -3 -18 -24 -18 -30 0 -23 -15 11 -23 16 -4 14 -5 -6 -6 -30 -1
-43 20 -33 51 7 24 47 21 52 -4z m79 2 c3 -11 9 -20 14 -20 5 0 9 9 9 20 0 11
4 20 9 20 5 0 4 -15 -2 -35 -13 -43 -22 -44 -36 -5 -5 17 -17 30 -25 30 -11 0
-16 -10 -16 -30 0 -16 -4 -30 -10 -30 -5 0 -10 16 -10 35 0 32 2 35 31 35 22
0 32 -5 36 -20z m103 16 c0 -2 3 -11 6 -19 4 -11 -2 -17 -23 -19 l-28 -4 25
-12 25 -12 -25 3 c-40 4 -41 67 0 67 11 0 20 -2 20 -4z m64 -18 l7 -23 10 24
c15 37 20 20 7 -23 -7 -20 -20 -42 -30 -47 -17 -9 -18 -8 -7 9 9 14 9 27 1 51
-6 17 -7 31 -3 31 5 0 12 -10 15 -22z m101 -13 c0 -25 -4 -30 -25 -30 -16 0
-26 6 -28 18 -6 30 6 49 30 45 18 -2 23 -9 23 -33z m48 -22 c7 2 15 17 18 33
6 27 7 27 8 -8 1 -34 -2 -38 -24 -38 -23 0 -25 4 -23 38 l1 37 4 -33 c3 -20 9
-32 16 -29z m75 50 c-10 -2 -18 -17 -21 -36 -4 -31 -4 -31 -5 6 -2 33 1 37 21
36 15 -1 17 -3 5 -6z m180 -31 c3 -31 2 -33 -24 -30 -34 4 -43 24 -15 33 26 8
27 22 4 29 -11 3 -7 4 7 3 21 -2 26 -8 28 -35z m110 0 c3 -31 2 -33 -24 -30
-34 4 -43 24 -15 33 26 8 27 22 4 29 -11 3 -7 4 7 3 21 -2 26 -8 28 -35z m32
26 c0 -9 3 -9 12 0 19 19 45 14 52 -10 l6 -23 15 25 c19 33 19 12 0 -34 -8
-20 -21 -36 -27 -36 -9 0 -9 3 -1 11 13 13 -2 69 -18 69 -16 0 -22 -29 -9 -45
15 -18 -1 -20 -18 -3 -9 9 -12 9 -12 0 0 -7 -5 -12 -10 -12 -7 0 -8 6 -1 17 6
11 6 24 0 35 -6 12 -6 18 1 18 5 0 10 -5 10 -12z m268 -10 c3 -14 -3 -18 -24
-18 -30 0 -23 -15 11 -23 16 -4 14 -5 -6 -6 -30 -1 -43 20 -33 51 7 24 47 21
52 -4z m32 -4 c0 -8 5 -14 10 -14 6 0 10 9 10 20 0 11 4 20 9 20 5 0 4 -15 -2
-35 -13 -43 -22 -44 -36 -4 -13 39 -14 42 -1 34 6 -3 10 -13 10 -21z m70 -9
c0 -19 -4 -35 -10 -35 -5 0 -10 16 -10 35 0 19 5 35 10 35 6 0 10 -16 10 -35z
m43 25 c-13 -5 -23 -16 -23 -25 0 -9 10 -20 23 -25 22 -9 22 -9 1 -9 -12 -1
-25 6 -28 15 -10 27 3 54 27 53 l22 0 -22 -9z m85 -13 c2 -12 -3 -17 -17 -17
-28 0 -27 -20 2 -21 19 -1 20 -2 3 -6 -27 -7 -49 23 -35 49 12 23 42 20 47 -5z
m100 -14 c-1 -37 -1 -37 -5 -5 -3 18 -10 32 -18 32 -8 0 -15 -14 -18 -32 -4
-32 -4 -32 -5 5 -2 33 0 37 23 37 23 0 25 -4 23 -37z m77 2 c0 -25 -4 -30 -25
-30 -16 0 -26 6 -28 18 -6 30 6 49 30 45 18 -2 23 -9 23 -33z m49 16 l6 24 14
-24 13 -23 6 23 c3 13 9 20 12 17 3 -3 -1 -21 -9 -39 -14 -33 -15 -33 -22 -10
l-7 23 -13 -23 -12 -24 -11 28 c-15 39 -13 57 3 28 l13 -23 7 23z m-3414 -491
c151 -77 121 -304 -45 -349 -55 -15 -865 -15 -920 0 -165 45 -195 270 -48 348
36 19 59 20 506 21 450 0 469 -1 507 -20z"/>
<path d="M4179 3141 c-17 -13 -23 -29 -23 -56 0 -46 31 -75 79 -75 65 0 99 84
52 128 -29 27 -77 28 -108 3z"/>
<path d="M812 3140 c-49 -46 -12 -130 56 -130 43 0 72 30 72 75 0 68 -78 101
-128 55z"/>
<path d="M1211 3134 c-12 -15 -21 -37 -21 -49 0 -12 9 -34 21 -49 16 -20 29
-26 59 -26 30 0 43 6 59 26 12 15 21 37 21 49 0 12 -9 34 -21 49 -16 20 -29
26 -59 26 -30 0 -43 -6 -59 -26z"/>
<path d="M2751 3134 c-12 -15 -21 -37 -21 -49 0 -38 37 -75 75 -75 48 0 79 29
79 75 0 71 -90 104 -133 49z"/>
<path d="M3052 3140 c-49 -46 -12 -130 56 -130 43 0 72 30 72 75 0 68 -78 101
-128 55z"/>
<path d="M3888 3149 c-35 -20 -17 -29 54 -29 70 0 71 0 53 20 -20 22 -77 27
-107 9z"/>
<path d="M564 2496 c-9 -23 0 -51 16 -51 10 0 15 10 15 29 0 32 -21 47 -31 22z"/>
<path d="M1316 2525 c-11 -29 -7 -62 9 -75 23 -19 37 0 33 46 -3 41 -30 59
-42 29z"/>
<path d="M1894 2515 c-8 -34 3 -75 21 -75 18 0 29 41 21 75 -4 14 -13 25 -21
25 -8 0 -17 -11 -21 -25z"/>
<path d="M2044 2515 c-8 -34 3 -75 21 -75 18 0 29 41 21 75 -4 14 -13 25 -21
25 -8 0 -17 -11 -21 -25z"/>
<path d="M2154 2527 c-10 -28 0 -82 16 -82 11 0 15 12 15 44 0 44 -19 68 -31
38z"/>
<path d="M2297 2490 c-4 -15 0 -20 13 -20 13 0 17 5 13 20 -3 11 -9 20 -13 20
-4 0 -10 -9 -13 -20z"/>
<path d="M2580 2511 c0 -25 4 -31 21 -31 16 0 20 5 17 27 -2 17 -10 29 -20 31
-14 3 -18 -3 -18 -27z"/>
<path d="M466 2495 c-4 -11 1 -15 19 -15 18 0 23 4 19 15 -4 8 -12 15 -19 15
-7 0 -15 -7 -19 -15z"/>
<path d="M814 2469 c-3 -6 -2 -15 4 -21 13 -13 32 -2 32 18 0 16 -26 19 -36 3z"/>
<path d="M1640 2470 c-11 -7 -12 -12 -3 -21 13 -13 33 -4 33 17 0 16 -9 18
-30 4z"/>
<path d="M2784 2135 c-3 -8 -3 -19 1 -25 11 -18 25 -11 25 15 0 27 -17 34 -26
10z"/>
<path d="M3030 2125 c0 -16 6 -25 15 -25 9 0 15 9 15 25 0 16 -6 25 -15 25 -9
0 -15 -9 -15 -25z"/>
<path d="M4304 2135 c-3 -8 -3 -19 1 -25 11 -18 25 -11 25 15 0 27 -17 34 -26
10z"/>
<path d="M1980 2155 c0 -8 7 -15 15 -15 8 0 15 7 15 15 0 8 -7 15 -15 15 -8 0
-15 -7 -15 -15z"/>
<path d="M1980 2115 c0 -8 9 -15 20 -15 11 0 20 7 20 15 0 8 -9 15 -20 15 -11
0 -20 -7 -20 -15z"/>
<path d="M490 2110 c0 -5 5 -10 10 -10 6 0 10 5 10 10 0 6 -4 10 -10 10 -5 0
-10 -4 -10 -10z"/>
<path d="M900 2140 c0 -5 7 -10 15 -10 8 0 15 5 15 10 0 6 -7 10 -15 10 -8 0
-15 -4 -15 -10z"/>
<path d="M1140 2140 c0 -5 7 -10 15 -10 8 0 15 5 15 10 0 6 -7 10 -15 10 -8 0
-15 -4 -15 -10z"/>
<path d="M1370 2140 c0 -5 7 -10 15 -10 8 0 15 5 15 10 0 6 -7 10 -15 10 -8 0
-15 -4 -15 -10z"/>
<path d="M1440 2110 c0 -5 5 -10 10 -10 6 0 10 5 10 10 0 6 -4 10 -10 10 -5 0
-10 -4 -10 -10z"/>
<path d="M1725 2140 c-3 -5 3 -10 15 -10 12 0 18 5 15 10 -3 6 -10 10 -15 10
-5 0 -12 -4 -15 -10z"/>
<path d="M1845 2140 c-3 -5 3 -10 15 -10 12 0 18 5 15 10 -3 6 -10 10 -15 10
-5 0 -12 -4 -15 -10z"/>
<path d="M2060 2140 c0 -5 7 -10 15 -10 8 0 15 5 15 10 0 6 -7 10 -15 10 -8 0
-15 -4 -15 -10z"/>
<path d="M2130 2110 c0 -5 5 -10 10 -10 6 0 10 5 10 10 0 6 -4 10 -10 10 -5 0
-10 -4 -10 -10z"/>
<path d="M2405 2140 c-3 -5 1 -10 9 -10 9 0 16 5 16 10 0 6 -4 10 -9 10 -6 0
-13 -4 -16 -10z"/>
<path d="M2613 2134 c-8 -21 13 -42 28 -27 13 13 5 43 -11 43 -6 0 -13 -7 -17
-16z"/>
<path d="M2890 2110 c0 -5 5 -10 10 -10 6 0 10 5 10 10 0 6 -4 10 -10 10 -5 0
-10 -4 -10 -10z"/>
<path d="M3185 2140 c-3 -5 3 -10 15 -10 12 0 18 5 15 10 -3 6 -10 10 -15 10
-5 0 -12 -4 -15 -10z"/>
<path d="M3315 2140 c-3 -5 3 -10 15 -10 12 0 18 5 15 10 -3 6 -10 10 -15 10
-5 0 -12 -4 -15 -10z"/>
<path d="M3505 2140 c-3 -5 1 -10 9 -10 9 0 16 5 16 10 0 6 -4 10 -9 10 -6 0
-13 -4 -16 -10z"/>
<path d="M3663 2134 c-8 -21 13 -42 28 -27 13 13 5 43 -11 43 -6 0 -13 -7 -17
-16z"/>
<path d="M3970 2110 c0 -5 5 -10 10 -10 6 0 10 5 10 10 0 6 -4 10 -10 10 -5 0
-10 -4 -10 -10z"/>
<path d="M4080 2110 c0 -5 5 -10 10 -10 6 0 10 5 10 10 0 6 -4 10 -10 10 -5 0
-10 -4 -10 -10z"/>
<path d="M4375 2140 c-3 -5 3 -10 15 -10 12 0 18 5 15 10 -3 6 -10 10 -15 10
-5 0 -12 -4 -15 -10z"/>
<path d="M4610 2140 c0 -5 7 -10 15 -10 8 0 15 5 15 10 0 6 -7 10 -15 10 -8 0
-15 -4 -15 -10z"/>
<path d="M4783 2134 c-8 -21 13 -42 28 -27 13 13 5 43 -11 43 -6 0 -13 -7 -17
-16z"/>
<path d="M601 1473 c1 -27 4 -38 6 -25 5 27 20 29 28 2 3 -11 11 -20 16 -20 6
0 6 6 0 18 -6 11 -6 24 -1 32 11 18 -6 40 -31 40 -16 0 -19 -7 -18 -47z m39
22 c0 -8 -7 -15 -15 -15 -8 0 -15 7 -15 15 0 8 7 15 15 15 8 0 15 -7 15 -15z"/>
<path d="M679 1484 c-17 -21 0 -48 32 -51 23 -1 23 -1 2 4 -29 6 -30 23 -2 23
15 0 19 4 15 16 -3 9 -6 18 -6 20 0 11 -29 2 -41 -12z m36 -4 c3 -5 -1 -10 -9
-10 -9 0 -16 5 -16 10 0 6 4 10 9 10 6 0 13 -4 16 -10z"/>
<path d="M745 1490 c-8 -14 3 -30 21 -30 8 0 12 -5 9 -11 -4 -6 -13 -8 -21 -5
-8 3 -14 1 -14 -4 0 -14 37 -12 46 2 4 6 0 16 -9 23 -22 16 -21 22 1 28 13 4
12 5 -5 6 -12 0 -25 -3 -28 -9z"/>
<path d="M809 1484 c-17 -21 0 -48 32 -51 23 -1 23 -1 2 4 -29 6 -30 23 -2 23
15 0 19 4 15 16 -3 9 -6 18 -6 20 0 11 -29 2 -41 -12z m36 -4 c3 -5 -1 -10 -9
-10 -9 0 -16 5 -16 10 0 6 4 10 9 10 6 0 13 -4 16 -10z"/>
<path d="M883 1465 c0 -22 2 -30 4 -17 2 12 2 30 0 40 -3 9 -5 -1 -4 -23z"/>
<path d="M933 1465 c13 -43 22 -44 36 -4 15 43 12 51 -4 14 l-13 -30 -7 28
c-4 15 -11 27 -15 27 -5 0 -3 -16 3 -35z"/>
<path d="M999 1484 c-17 -21 0 -48 32 -51 23 -1 23 -1 2 4 -29 6 -30 23 -2 23
15 0 19 4 15 16 -3 9 -6 18 -6 20 0 11 -29 2 -41 -12z m36 -4 c3 -5 -1 -10 -9
-10 -9 0 -16 5 -16 10 0 6 4 10 9 10 6 0 13 -4 16 -10z"/>
<path d="M1102 1463 c1 -38 1 -38 5 -5 5 40 25 38 35 -4 6 -27 6 -27 5 6 -2
28 -6 36 -24 38 -21 3 -23 -1 -21 -35z"/>
<path d="M1174 1486 c-10 -26 0 -51 21 -51 16 0 20 7 20 30 0 33 -30 49 -41
21z m36 -21 c0 -26 -14 -33 -25 -15 -9 14 1 40 15 40 5 0 10 -11 10 -25z"/>
<path d="M1241 1490 c-1 -22 10 -60 18 -60 6 0 31 49 31 62 0 18 -19 6 -23
-14 -4 -23 -4 -23 -15 2 -6 14 -11 18 -11 10z"/>
<path d="M1310 1480 c0 -11 -4 -20 -10 -20 -5 0 -10 -7 -10 -15 0 -28 17 -15
27 20 6 20 7 35 2 35 -5 0 -9 -9 -9 -20z"/>
</g>
</svg>
