<svg version="1.1" viewBox="0.0 0.0 879.3727034120735 324.3963254593176" fill="none" stroke="none" stroke-linecap="square" stroke-miterlimit="10" xmlns:xlink="http://www.w3.org/1999/xlink" xmlns="http://www.w3.org/2000/svg"><clipPath id="p.0"><path d="m0 0l879.3727 0l0 324.39633l-879.3727 0l0 -324.39633z" clip-rule="nonzero"/></clipPath><g clip-path="url(#p.0)"><path fill="#000000" fill-opacity="0.0" d="m0 0l879.3727 0l0 324.39633l-879.3727 0z" fill-rule="evenodd"/><path fill="#000000" fill-opacity="0.0" d="m590.7559 306.24408l60.543274 -242.17322l213.37799 0l-60.543335 242.17322z" fill-rule="evenodd"/><path stroke="#ff9900" stroke-width="24.0" stroke-linejoin="round" stroke-linecap="butt" d="m590.7559 306.24408l60.543274 -242.17322l213.37799 0l-60.543335 242.17322z" fill-rule="evenodd"/><path fill="#000000" fill-opacity="0.0" d="m0 0l879.37006 0l0 204.56693l-879.37006 0z" fill-rule="evenodd"/><path fill="#000000" d="m145.26562 156.2l-19.625 0l0 -63.9375l-34.515625 60.71875q-1.265625 2.328125 -3.546875 3.515625q-2.28125 1.203125 -4.90625 1.203125q-2.546875 0 -4.765625 -1.203125q-2.203125 -1.1875 -3.46875 -3.515625l-34.671875 -60.71875l0 63.9375l-19.453125 0l0 -99.046875q0 -3.375 1.96875 -5.984375q1.984375 -2.625 5.21875 -3.53125q1.5625 -0.375 3.125 -0.25q1.578125 0.109375 3.03125 0.671875q1.46875 0.5625 2.671875 1.578125q1.203125 1.0 2.015625 2.421875l44.328125 77.03125l44.3125 -77.03125q1.734375 -2.84375 4.765625 -4.03125q3.03125 -1.203125 6.328125 -0.390625q3.140625 0.90625 5.15625 3.53125q2.03125 2.609375 2.03125 5.984375l0 99.046875z" fill-rule="nonzero"/><path fill="#ff9900" d="m254.93835 163.98125q0 5.015625 -1.28125 9.015625q-1.265625 4.015625 -3.359375 7.046875q-2.09375 3.03125 -4.875 5.15625q-2.765625 2.140625 -5.796875 3.484375q-3.03125 1.359375 -6.109375 1.984375q-3.0625 0.640625 -5.828125 0.640625l-35.109375 0l0 -19.46875l35.109375 0q3.890625 0 5.828125 -2.015625q1.953125 -2.015625 1.953125 -5.84375l0 -88.71875l19.46875 0l0 88.71875zm-27.25 -7.78125l-35.109375 0q-4.203125 0 -8.953125 -1.421875q-4.75 -1.421875 -8.875 -4.671875q-4.109375 -3.265625 -6.8125 -8.46875q-2.6875 -5.203125 -2.6875 -12.765625l0 -53.609375l19.46875 0l0 53.609375q0 3.8125 2.015625 5.84375q2.015625 2.015625 5.984375 2.015625l34.96875 0l0 19.46875z" fill-rule="nonzero"/><path fill="#000000" d="m359.3722 182.55937l-85.5625 0l0 -17.453125l85.5625 0l0 17.453125zm145.70544 -26.359375l-19.625 0l0 -63.9375l-34.515625 60.71875q-1.265625 2.328125 -3.546875 3.515625q-2.28125 1.203125 -4.90625 1.203125q-2.546875 0 -4.765625 -1.203125q-2.203125 -1.1875 -3.46875 -3.515625l-34.671875 -60.71875l0 63.9375l-19.453125 0l0 -99.046875q0 -3.375 1.96875 -5.984375q1.984375 -2.625 5.21875 -3.53125q1.5625 -0.375 3.125 -0.25q1.578125 0.109375 3.03125 0.671875q1.46875 0.5625 2.671875 1.578125q1.203125 1.0 2.015625 2.421875l44.328125 77.03125l44.3125 -77.03125q1.734375 -2.84375 4.765625 -4.03125q3.03125 -1.203125 6.328125 -0.390625q3.140625 0.90625 5.15625 3.53125q2.03125 2.609375 2.03125 5.984375l0 99.046875z" fill-rule="nonzero"/><path fill="#ff9900" d="m609.06287 129.40312q0 4.03125 -1.421875 8.71875q-1.421875 4.671875 -4.609375 8.6875q-3.171875 4.0 -8.3125 6.703125q-5.125 2.6875 -12.453125 2.6875l-35.125 0q-4.03125 0 -8.71875 -1.421875q-4.671875 -1.421875 -8.6875 -4.59375q-4.0 -3.1875 -6.703125 -8.3125q-2.6875 -5.140625 -2.6875 -12.46875q0 -4.046875 1.421875 -8.765625q1.421875 -4.71875 4.59375 -8.71875q3.1875 -4.015625 8.3125 -6.703125q5.140625 -2.703125 12.46875 -2.703125l35.125 0l0 18.578125l-35.125 0q-3.96875 0 -6.140625 2.4375q-2.171875 2.421875 -2.171875 6.015625q0 3.828125 2.5 5.96875q2.515625 2.125 5.96875 2.125l34.96875 0q3.953125 0 6.125 -2.390625q2.171875 -2.40625 2.171875 -6.0l0 -27.171875q0 -3.828125 -2.359375 -6.0625q-2.34375 -2.25 -5.9375 -2.25l-42.75 0l0 -18.5l42.75 0q4.03125 0 8.703125 1.421875q4.6875 1.421875 8.6875 4.609375q4.015625 3.1875 6.703125 8.3125q2.703125 5.125 2.703125 12.46875l0 27.328125z" fill-rule="nonzero"/><path fill="#000000" d="m696.50085 94.73125l-43.796875 0q-3.96875 0 -5.984375 1.984375q-2.015625 1.984375 -2.015625 5.796875l0 53.6875l-19.46875 0l0 -53.6875q0 -5.015625 1.265625 -8.96875q1.28125 -3.96875 3.40625 -7.0q2.140625 -3.046875 4.90625 -5.171875q2.765625 -2.140625 5.796875 -3.484375q3.046875 -1.34375 6.140625 -1.984375q3.109375 -0.640625 5.8125 -0.640625l43.9375 0l0 19.46875zm107.892334 61.46875l-28.078125 0l-39.234375 -37.890625q-3.296875 -2.984375 -3.0625 -7.484375q0.140625 -2.09375 1.078125 -3.921875q0.9375 -1.84375 2.59375 -3.109375l35.5625 -28.671875l31.140625 0l-45.828125 36.90625l45.828125 44.171875zm-75.3125 0l-19.46875 0l0 -115.140625l19.46875 0l0 115.140625z" fill-rule="nonzero"/><path fill="#000000" fill-opacity="0.0" d="m744.1732 206.91077l-97.57477 78.77164" fill-rule="evenodd"/><path stroke="#ff9900" stroke-width="24.0" stroke-linejoin="round" stroke-linecap="butt" d="m744.1732 206.91077l-97.57477 78.77164" fill-rule="evenodd"/><path fill="#ff9900" d="m737.2572 197.79517l30.67566 -9.381683l-15.759094 27.940872z" fill-rule="evenodd"/></g></svg>