<svg version="1.1" viewBox="0.0 0.0 960.0 720.0" fill="none" stroke="none" stroke-linecap="square" stroke-miterlimit="10" xmlns:xlink="http://www.w3.org/1999/xlink" xmlns="http://www.w3.org/2000/svg"><clipPath id="p.0"><path d="m0 0l960.0 0l0 720.0l-960.0 0l0 -720.0z" clip-rule="nonzero"/></clipPath><g clip-path="url(#p.0)"><path fill="#000000" fill-opacity="0.0" d="m0 0l960.0 0l0 720.0l-960.0 0z" fill-rule="evenodd"/><path fill="#000000" d="m-1.5223097 0l960.0 0l0 720.0l-960.0 0z" fill-rule="evenodd"/><path stroke="#000000" stroke-width="1.0" stroke-linejoin="round" stroke-linecap="butt" d="m-1.5223097 0l960.0 0l0 720.0l-960.0 0z" fill-rule="evenodd"/><path fill="#000000" fill-opacity="0.0" d="m140.55118 130.91339l678.8976 0l0 458.17322l-678.8976 0z" fill-rule="evenodd"/><path fill="#ffffff" d="m268.73477 498.31964l-42.46875 0l0 -310.04688l42.46875 0l0 310.04688zm212.07806 -97.8125q0 10.90625 -2.765625 19.609375q-2.765625 8.703125 -7.328125 15.296875q-4.546875 6.59375 -10.578125 11.234375q-6.015625 4.640625 -12.609375 7.578125q-6.59375 2.921875 -13.359375 4.3125q-6.75 1.375 -12.765625 1.375l-114.578094 0l0 -42.3125l114.24997 0q8.625 0 13.015625 -4.390625q4.40625 -4.40625 4.40625 -12.703125q-0.8125 -16.921875 -17.09375 -16.921875l-65.59372 0q-14.0 0 -23.765625 -4.875q-9.765625 -4.890625 -15.875 -12.21875q-6.09375 -7.328125 -8.78125 -15.78125q-2.6875 -8.46875 -2.6875 -15.796875q0 -14.15625 5.046875 -23.84375q5.046875 -9.6875 12.6875 -15.703125q7.65625 -6.015625 16.609375 -8.703125q8.953125 -2.6875 16.765625 -2.6875l103.99997 0l0 42.3125l-103.671844 0q-3.25 0 -5.125 0.734375q-1.875 0.734375 -2.765625 1.953125q-0.890625 1.21875 -1.0625 2.609375q-0.15625 1.375 -0.15625 2.671875q0.15625 2.609375 0.96875 4.078125q0.8125 1.46875 2.03125 2.125q1.234375 0.640625 2.765625 0.71875q1.546875 0.078125 3.015625 0.078125l65.59372 0q16.28125 0 27.671875 5.859375q11.390625 5.859375 18.390625 14.734375q7.0 8.875 10.171875 19.296875q3.171875 10.40625 3.171875 19.359375zm72.594574 -152.67188l-42.328156 0l0 -38.25l42.328156 0l0 38.25zm0 212.07812l-42.328156 0l0 -175.9375l42.328156 0l0 175.9375zm194.49481 -133.625l-95.21875 0q-8.625 0 -13.015625 4.3125q-4.390625 4.3125 -4.390625 12.609375l0 116.703125l-42.328125 0l0 -116.703125q0 -10.90625 2.765625 -19.53125q2.765625 -8.625 7.40625 -15.203125q4.640625 -6.59375 10.65625 -11.234375q6.03125 -4.640625 12.625 -7.5625q6.59375 -2.9375 13.34375 -4.3125q6.75 -1.390625 12.609375 -1.390625l95.546875 0l0 42.3125z" fill-rule="nonzero"/></g></svg>